<svg width="21" height="21" viewBox="0 0 21 21" fill="none" xmlns="http://www.w3.org/2000/svg">
<g clip-path="url(#clip0_391_127)">
<path d="M0.175122 0C0.0778318 0 0 0.0778318 0 0.175122V20.8297C0 20.927 0.0778318 21.0049 0.175122 21.0049H6.00764C6.12439 21.0049 6.22655 20.9562 6.29951 20.8833L7.29187 19.8909C7.36484 19.8179 7.41348 19.7109 7.41348 19.599V7.58374C7.41348 7.46699 7.36484 7.35997 7.287 7.287L6.28006 6.28006C6.28006 6.28006 6.26546 6.25573 6.26546 6.24114C6.26546 6.20709 6.28978 6.18277 6.32384 6.18277H14.6859C14.7199 6.18277 14.7443 6.20709 14.7443 6.24114C14.7443 6.25573 14.7394 6.27033 14.7297 6.28006L13.7227 7.287C13.6449 7.36484 13.5962 7.46699 13.5962 7.58374V19.599C13.5962 19.7109 13.6449 19.8179 13.7179 19.8909L14.7102 20.8833C14.7832 20.9562 14.8902 21.0049 15.0021 21.0049H20.8346C20.9319 21.0049 21.0097 20.927 21.0097 20.8297V0.175122C21.0097 0.0778318 20.9319 0 20.8346 0" fill="#FFFFE4"/>
</g>
<defs>
<clipPath id="clip0_391_127">
<rect width="21" height="21" fill="white"/>
</clipPath>
</defs>
</svg>
